# xmcd
#
# Track frame offsets:
#	150
#	35567
#	102900
#	148812
#
# Disc length: 2715 seconds
#
# Revision: 1
# Processed by: cddbd v1.5.1PL0 Copyright (c) Steve Scherf et al.
# Submitted via: CDex 1.50Beta5
#
DISCID=340a9904
DTITLE=Nature - 自然のシンフォニー 1
DYEAR=1900
DGENRE=
TTITLE0=朝「ペールギュント」
TTITLE1=ウィーンの森の物語
TTITLE2=花のワルツ「くるみ割り人形」
TTITLE3=ホルン協奏曲 Mozart
EXTD=
EXTT0=
EXTT1=
EXTT2=
EXTT3=
PLAYORDER=
